<?xml version="1.0" encoding="utf-8"?>
<!-- Generator: Adobe Illustrator 26.4.1, SVG Export Plug-In . SVG Version: 6.00 Build 0)  -->
<svg version="1.1" xmlns="http://www.w3.org/2000/svg" xmlns:xlink="http://www.w3.org/1999/xlink" x="0px" y="0px"
	 viewBox="0 0 56 49" style="enable-background:new 0 0 56 49;" xml:space="preserve">
<style type="text/css">
	.st0{display:none;}
	.st1{display:inline;}
	.st2{fill:none;stroke:#484848;stroke-width:1.3824;}
	.st3{fill-rule:evenodd;clip-rule:evenodd;fill:#A28858;}
	.st4{fill-rule:evenodd;clip-rule:evenodd;fill:#EFD099;}
	.st5{fill-rule:evenodd;clip-rule:evenodd;fill:#FFFFFF;stroke:#484848;stroke-width:1.2288;}
	.st6{fill-rule:evenodd;clip-rule:evenodd;fill:#484848;}
</style>
<g id="Capa_1" class="st0">
	<g id="Desktop" class="st1">
		<g id="Footer" transform="translate(0.000000, 5370.000000)">
			<g id="Group-41" transform="translate(498.000000, 82.000000)">
				<g id="Group-16">
					<path id="Rectangle-193" class="st2" d="M-495.2-5451h50.3c1,0,1.8,0.8,1.8,1.8v6c0,1-0.8,1.8-1.8,1.8h-50.3
						c-1,0-1.8-0.8-1.8-1.8v-6C-497-5450.2-496.2-5451-495.2-5451z"/>
					<path id="Rectangle-194" class="st2" d="M-495-5441.3h49.1v36.3l0,0c0,0.7-0.6,1.2-1.2,1.2h-46.6l0,0c-0.7,0-1.2-0.6-1.2-1.2
						V-5441.3z"/>
					<polygon id="Fill-9" class="st3" points="-475,-5430.5 -473.4,-5432.1 -471.7,-5430.5 -470.1,-5432.1 -468.5,-5430.5 
						-466.8,-5432.1 -465.2,-5430.5 -465.2,-5442 -475,-5442 					"/>
					<rect id="Rectangle-195" x="-475" y="-5451.7" class="st4" width="9.8" height="10.4"/>
					<g id="Group-12" transform="translate(7.000000, 33.000000)">
						<path id="Fill-15" class="st5" d="M-478.1-5441.1h-18.4c-0.3,0-0.5-0.2-0.5-0.5v-10c0-0.3,0.2-0.5,0.5-0.5h18.4
							c0.3,0,0.5,0.2,0.5,0.5v10C-477.7-5441.3-477.9-5441.1-478.1-5441.1"/>
						<path id="Fill-16" class="st6" d="M-492.5-5446.4c-0.3,0-0.5-0.1-0.7-0.3c-0.1-0.1-0.2-0.3-0.2-0.5c0-0.5,0.4-0.9,0.9-0.9
							s0.9,0.4,0.9,0.9C-491.6-5446.8-492-5446.4-492.5-5446.4 M-492.5-5449.6c-1.3,0-2.3,1-2.3,2.3c0,0.5,0.1,0.9,0.4,1.2l1.9,2.6
							l1.9-2.6c0.2-0.4,0.4-0.8,0.4-1.2C-490.1-5448.5-491.2-5449.6-492.5-5449.6"/>
						<path id="Fill-17" class="st6" d="M-487.8-5448.4h6.1l0,0c0.3,0,0.6-0.3,0.6-0.6l0,0l0,0c0-0.3-0.3-0.6-0.6-0.6h-6.1l0,0
							c-0.3,0-0.6,0.3-0.6,0.6l0,0l0,0C-488.4-5448.6-488.1-5448.4-487.8-5448.4z"/>
						<path id="Fill-18" class="st6" d="M-487.8-5445.9h4.3l0,0c0.3,0,0.6-0.3,0.6-0.6l0,0l0,0c0-0.3-0.3-0.6-0.6-0.6h-4.3l0,0
							c-0.3,0-0.6,0.3-0.6,0.6l0,0l0,0C-488.4-5446.2-488.1-5445.9-487.8-5445.9z"/>
						<path id="Fill-19" class="st6" d="M-487.8-5443.5h4.9l0,0c0.3,0,0.6-0.3,0.6-0.6l0,0l0,0c0-0.3-0.3-0.6-0.6-0.6h-4.9l0,0
							c-0.3,0-0.6,0.3-0.6,0.6l0,0l0,0C-488.4-5443.8-488.1-5443.5-487.8-5443.5z"/>
					</g>
				</g>
			</g>
		</g>
	</g>
</g>
<g id="Capa_2">
	<g>
		<path d="M51,36c-0.3,0.5-0.7,0.7-1.3,0.7c-0.5,0-1,0-1.5,0c-0.1,0-0.4,0.2-0.4,0.3c-0.6,1.5-1.7,2.2-3.3,2.3
			c-1.5,0-2.7-0.9-3.3-2.3c-0.1-0.1-0.3-0.3-0.4-0.3c-4,0-7.9,0-11.9,0c-0.1,0-0.4,0.2-0.4,0.3c-0.6,1.4-1.9,2.3-3.3,2.3
			c-1.6-0.1-2.7-0.8-3.3-2.3c-0.1-0.1-0.3-0.3-0.4-0.3c-0.5,0-0.9,0-1.4,0c-0.9,0-1.2-0.3-1.2-1.2c0-0.2,0-0.4,0-0.7
			c-0.2,0-0.4,0-0.5,0c-1.5,0-3,0-4.6,0c-0.1,0-0.3,0-0.4,0c-0.5-0.1-0.9-0.5-0.9-1c0-0.5,0.3-0.9,0.9-0.9c1,0,2.1,0,3.1,0
			c0.8,0,1.5,0,2.3,0c0-0.2,0-0.3,0-0.5c0-2.4,0-4.8,0-7.1c0-0.3-0.1-0.5-0.4-0.6c-3.6-0.6-6.3-3.9-6.2-7.7c0.1-3.7,2.9-6.8,6.6-7.3
			c4.2-0.5,8,2.4,8.5,6.6c0,0.1,0,0.2,0.1,0.4c0.2,0,0.3,0,0.5,0c3.6,0,7.3,0,10.9,0c1,0,1.3,0.3,1.3,1.3c0,1.1,0,2.3,0,3.5
			c0.3,0,0.5,0,0.8,0c1.2,0,2.3,0,3.5,0c0.4,0,0.8,0.1,1.1,0.5c1.7,2,3.5,4,5.2,6c0.1,0.1,0.2,0.3,0.4,0.5C51,31,51,33.5,51,36z
			 M38.2,18.6c-0.1,0-0.1,0-0.2,0c-3.5,0-6.9,0-10.4,0c-0.3,0-0.4,0.2-0.4,0.4c-0.6,2.9-3.1,5.3-6,5.8c-0.4,0.1-0.5,0.2-0.5,0.5
			c0,3,0,6,0,9c0,0.1,0,0.3,0,0.4c0.9,0.1,0.9,0.1,1.3-0.6c0.7-1.3,1.9-2,3.4-1.9c1.5,0.1,2.5,0.9,3,2.2c0.1,0.3,0.3,0.4,0.6,0.4
			c2.9,0,5.8,0,8.7,0c0.1,0,0.3,0,0.4,0C38.2,29.4,38.2,24,38.2,18.6z M25.5,17.4c0.1-3.1-2.5-5.7-5.6-5.8c-3.1-0.1-5.7,2.5-5.8,5.6
			c-0.1,3.1,2.5,5.7,5.6,5.8C22.8,23.1,25.4,20.6,25.5,17.4z M49.1,34.8c0-0.2,0-0.3,0-0.5c0-1.6,0-3.2,0-4.9c0-0.2-0.1-0.5-0.3-0.7
			c-1.5-1.7-3-3.4-4.4-5.1c-0.1-0.1-0.4-0.3-0.6-0.3c-1.1,0-2.2,0-3.4,0c-0.1,0-0.3,0-0.4,0c0,3.8,0,7.6,0,11.4c0.3,0,0.6,0,1,0
			c0.6-1.6,1.7-2.6,3.4-2.6c1.7,0,2.8,1,3.4,2.6C48.3,34.8,48.7,34.8,49.1,34.8z M46.2,35.8c0-0.9-0.7-1.7-1.6-1.7
			c-0.9,0-1.7,0.7-1.7,1.6c0,0.9,0.7,1.7,1.6,1.7C45.4,37.5,46.1,36.8,46.2,35.8z M25.1,37.5c0.9,0,1.7-0.7,1.7-1.7
			c0-0.9-0.8-1.7-1.7-1.7c-0.9,0-1.7,0.8-1.7,1.7C23.5,36.7,24.2,37.5,25.1,37.5z"/>
		<path d="M9.9,27.7c-1.5,0-3.1,0-4.6,0c-0.2,0-0.4,0-0.6,0c-0.4-0.1-0.7-0.4-0.8-0.9c0-0.4,0.3-0.8,0.7-0.9c0.1,0,0.3-0.1,0.5-0.1
			c3.2,0,6.3,0,9.5,0c0.5,0,0.9,0.1,1.1,0.6c0.3,0.5-0.1,1.1-0.6,1.3c-0.2,0-0.4,0.1-0.6,0.1C13,27.7,11.4,27.7,9.9,27.7z"/>
		<path d="M7.9,18.9c0.6,0,1.2,0,1.7,0c0.6,0,1,0.4,1.1,0.9c0,0.5-0.4,0.9-1,0.9c-1.2,0-2.4,0-3.6,0c-0.6,0-1-0.4-1-0.9
			c0-0.5,0.4-0.9,1-1c0,0,0.1,0,0.1,0C6.8,18.9,7.4,18.9,7.9,18.9z"/>
		<path d="M10,34.8c-0.8,0-1.2-0.4-1.1-1.1c0.1-0.5,0.5-0.8,1.3-0.8c0.6,0,1,0.3,1.1,0.8C11.3,34.5,10.8,34.9,10,34.8z"/>
		<path d="M20.7,14.9c0,0.1,0,0.2,0,0.2c-0.2,1.2,0.1,2.3,1.2,3.1c0.5,0.4,0.5,1,0.1,1.4c-0.4,0.4-1,0.4-1.5-0.1
			c-0.5-0.4-0.9-0.9-1.4-1.4c-0.2-0.3-0.4-0.6-0.4-0.9c0-1.3,0-2.7,0-4c0-0.7,0.4-1.1,1-1.1c0.5,0,0.8,0.4,0.9,1.1
			C20.7,13.7,20.7,14.3,20.7,14.9z"/>
	</g>
</g>
</svg>
