<?xml version="1.0" encoding="utf-8"?>
<!-- Generator: Adobe Illustrator 26.4.1, SVG Export Plug-In . SVG Version: 6.00 Build 0)  -->
<svg version="1.1" id="Capa_1" xmlns="http://www.w3.org/2000/svg" xmlns:xlink="http://www.w3.org/1999/xlink" x="0px" y="0px"
	 viewBox="0 0 300 300" style="enable-background:new 0 0 300 300;" xml:space="preserve">
<style type="text/css">
	.st0{fill:#FFFFFF;}
</style>
<g>
	<path class="st0" d="M69.68,80.7c-2.14-2.89-4.74-5.39-7.56-7.59c-2.82-2.19-5.94-4-9.27-5.24c-3.33-1.24-6.87-1.89-10.4-1.89
		c-3.53-0.1-7.08,0.52-10.44,1.57c-6.73,2.08-12.74,6.59-16.04,12.8c-0.84,1.53-1.53,3.14-2.07,4.8c-0.52,1.67-0.89,3.38-1.11,5.11
		c-0.45,3.46-0.3,7.01,0.52,10.4l-0.02-0.07c0.49,1.73,1.19,3.29,2.02,4.86c0.83,1.55,1.77,3.05,2.82,4.47
		c2.09,2.85,4.56,5.41,7.26,7.69c2.71,2.28,5.73,4.18,8.82,5.91c3.14,1.61,6.46,3.08,9.73,4.61c1.62,0.76,3.3,1.53,4.89,2.45
		c1.6,0.9,3.16,1.86,4.67,2.9c3,2.1,5.86,4.39,8.41,7.07c2.52,2.62,4.9,5.51,6.62,8.82c0.86,1.65,1.57,3.38,2.07,5.18
		c0.51,1.8,0.74,3.66,0.87,5.52c0.14,3.73-0.49,7.47-1.82,10.93c-1.32,3.47-3.2,6.67-5.64,9.5c-1.28,1.38-2.66,2.57-4.1,3.7
		c-0.71,0.58-1.47,1.09-2.21,1.63c-0.77,0.49-1.52,1.03-2.31,1.47c-3.14,1.87-6.52,3.37-10.04,4.36c-3.52,0.99-7.18,1.47-10.84,1.41
		c-3.65-0.1-7.28-0.71-10.74-1.86c-3.45-1.16-6.72-2.82-9.72-4.84c-2.98-2.06-5.71-4.48-8.05-7.22c4.89,5.3,11.12,9.35,17.96,11.45
		c6.85,2.08,14.27,2.03,21.07-0.01c6.79-2.05,13.08-5.96,17.89-11.07c2.25-2.66,4-5.82,5.22-9.09c1.24-3.28,1.81-6.8,1.67-10.28
		c-0.13-1.74-0.36-3.47-0.84-5.14c-0.47-1.68-1.14-3.3-1.96-4.84c-1.63-3.1-3.9-5.83-6.38-8.39c-2.44-2.54-5.25-4.77-8.17-6.78
		c-1.47-1-2.98-1.93-4.53-2.79c-1.54-0.87-3.15-1.6-4.79-2.37c-3.25-1.55-6.53-3.01-9.8-4.71c-3.19-1.8-6.29-3.78-9.1-6.16
		c-2.8-2.38-5.35-5.06-7.51-8.04c-1.09-1.49-2.06-3.06-2.92-4.69c-0.86-1.62-1.62-3.37-2.1-5.12l-0.02-0.07
		c-1.66-7.19-0.67-15,3.01-21.4c1.81-3.21,4.28-6.04,7.22-8.25c2.93-2.22,6.26-3.87,9.76-4.89c6.96-2.14,14.66-1.97,21.39,0.78
		c3.37,1.35,6.48,3.27,9.27,5.55C65.13,75.11,67.63,77.75,69.68,80.7"/>
	<path class="st0" d="M75.04,80.7c-2.14-2.89-4.74-5.39-7.56-7.59c-2.82-2.19-5.94-4-9.27-5.24c-3.33-1.24-6.87-1.89-10.4-1.89
		c-3.53-0.1-7.08,0.52-10.44,1.57c-6.73,2.08-12.74,6.59-16.04,12.8c-0.84,1.53-1.53,3.14-2.07,4.8c-0.52,1.67-0.89,3.38-1.12,5.11
		c-0.45,3.46-0.3,7.01,0.52,10.4l-0.02-0.07c0.49,1.73,1.19,3.29,2.02,4.86c0.83,1.55,1.77,3.05,2.81,4.47
		c2.09,2.85,4.56,5.41,7.26,7.69c2.71,2.28,5.73,4.18,8.82,5.91c3.14,1.61,6.46,3.08,9.73,4.61c1.62,0.76,3.3,1.53,4.89,2.45
		c1.6,0.9,3.16,1.86,4.67,2.9c3,2.1,5.86,4.39,8.41,7.07c2.52,2.62,4.9,5.51,6.62,8.82c0.86,1.65,1.57,3.38,2.07,5.18
		c0.51,1.8,0.75,3.66,0.87,5.52c0.14,3.73-0.49,7.47-1.82,10.93c-1.31,3.47-3.19,6.67-5.64,9.5c-1.28,1.38-2.66,2.57-4.11,3.7
		c-0.71,0.58-1.47,1.09-2.21,1.63c-0.77,0.49-1.52,1.03-2.31,1.47c-3.14,1.87-6.52,3.37-10.04,4.36c-3.52,0.99-7.18,1.47-10.84,1.41
		c-3.65-0.1-7.28-0.71-10.74-1.86c-3.45-1.16-6.72-2.82-9.72-4.84c-2.98-2.06-5.71-4.48-8.05-7.22c4.89,5.3,11.12,9.35,17.96,11.45
		c6.85,2.08,14.27,2.03,21.07-0.01c6.79-2.05,13.07-5.96,17.89-11.07c2.25-2.66,4-5.82,5.22-9.09c1.24-3.28,1.81-6.8,1.67-10.28
		c-0.13-1.74-0.36-3.47-0.84-5.14c-0.47-1.68-1.14-3.3-1.96-4.84c-1.63-3.1-3.9-5.83-6.38-8.39c-2.44-2.54-5.25-4.77-8.17-6.78
		c-1.47-1-2.98-1.93-4.53-2.79c-1.54-0.87-3.15-1.6-4.79-2.37c-3.25-1.55-6.53-3.01-9.8-4.71c-3.19-1.8-6.29-3.78-9.09-6.16
		c-2.8-2.38-5.35-5.06-7.51-8.04c-1.09-1.49-2.06-3.06-2.92-4.69c-0.86-1.62-1.62-3.37-2.1-5.12l-0.02-0.07
		c-1.66-7.19-0.67-15,3.01-21.4c1.81-3.21,4.28-6.04,7.22-8.25c2.93-2.22,6.26-3.87,9.76-4.89c6.96-2.14,14.66-1.97,21.39,0.78
		c3.37,1.35,6.48,3.27,9.27,5.55C70.49,75.11,72.99,77.75,75.04,80.7"/>
	<path class="st0" d="M80.4,80.7c-2.14-2.89-4.74-5.39-7.56-7.59c-2.82-2.19-5.94-4-9.27-5.24c-3.33-1.24-6.87-1.89-10.4-1.89
		c-3.53-0.1-7.08,0.52-10.44,1.57c-6.73,2.08-12.74,6.59-16.04,12.8c-0.84,1.53-1.53,3.14-2.07,4.8c-0.52,1.67-0.89,3.38-1.11,5.11
		c-0.45,3.46-0.3,7.01,0.52,10.4L24,100.6c0.49,1.73,1.19,3.29,2.02,4.86c0.83,1.55,1.77,3.05,2.82,4.47
		c2.09,2.85,4.56,5.41,7.26,7.69c2.71,2.28,5.73,4.18,8.82,5.91c3.14,1.61,6.46,3.08,9.73,4.61c1.62,0.76,3.3,1.53,4.89,2.45
		c1.6,0.9,3.16,1.86,4.67,2.9c3,2.1,5.86,4.39,8.41,7.07c2.52,2.62,4.91,5.51,6.62,8.82c0.86,1.65,1.57,3.38,2.07,5.18
		c0.51,1.8,0.75,3.66,0.87,5.52c0.14,3.73-0.49,7.47-1.82,10.93c-1.32,3.47-3.2,6.67-5.64,9.5c-1.28,1.38-2.66,2.57-4.1,3.7
		c-0.71,0.58-1.47,1.09-2.21,1.63c-0.77,0.49-1.52,1.03-2.31,1.47c-3.14,1.87-6.52,3.37-10.04,4.36c-3.52,0.99-7.18,1.47-10.84,1.41
		c-3.65-0.1-7.28-0.71-10.74-1.86c-3.45-1.16-6.72-2.82-9.72-4.84c-2.98-2.06-5.71-4.48-8.05-7.22c4.89,5.3,11.12,9.35,17.96,11.45
		c6.85,2.08,14.27,2.03,21.07-0.01c6.79-2.05,13.07-5.96,17.89-11.07c2.25-2.66,4-5.82,5.22-9.09c1.24-3.28,1.81-6.8,1.67-10.28
		c-0.13-1.74-0.36-3.47-0.84-5.14c-0.47-1.68-1.14-3.3-1.96-4.84c-1.63-3.1-3.9-5.83-6.38-8.39c-2.44-2.54-5.25-4.77-8.17-6.78
		c-1.47-1-2.98-1.93-4.53-2.79c-1.54-0.87-3.15-1.6-4.79-2.37c-3.25-1.55-6.53-3.01-9.8-4.71c-3.19-1.8-6.29-3.78-9.1-6.16
		c-2.8-2.38-5.35-5.06-7.51-8.04c-1.09-1.49-2.06-3.06-2.92-4.69c-0.86-1.62-1.62-3.37-2.1-5.12l-0.02-0.07
		c-1.66-7.19-0.67-15,3.01-21.4c1.81-3.21,4.28-6.04,7.22-8.25c2.93-2.22,6.26-3.87,9.76-4.89c6.96-2.14,14.66-1.97,21.39,0.78
		c3.37,1.35,6.48,3.27,9.27,5.55C75.85,75.11,78.35,77.75,80.4,80.7"/>
	<path class="st0" d="M85.76,80.7c-2.14-2.89-4.74-5.39-7.56-7.59c-2.82-2.19-5.94-4-9.27-5.24c-3.33-1.24-6.87-1.89-10.4-1.89
		c-3.53-0.1-7.08,0.52-10.44,1.57c-6.73,2.08-12.74,6.59-16.04,12.8c-0.84,1.53-1.53,3.14-2.07,4.8c-0.52,1.67-0.89,3.38-1.11,5.11
		c-0.45,3.46-0.3,7.01,0.52,10.4l-0.02-0.07c0.49,1.73,1.19,3.29,2.02,4.86c0.83,1.55,1.77,3.05,2.82,4.47
		c2.09,2.85,4.56,5.41,7.26,7.69c2.71,2.28,5.73,4.18,8.82,5.91c3.14,1.61,6.46,3.08,9.73,4.61c1.62,0.76,3.3,1.53,4.89,2.45
		c1.6,0.9,3.16,1.86,4.67,2.9c3,2.1,5.86,4.39,8.41,7.07c2.52,2.62,4.9,5.51,6.62,8.82c0.86,1.65,1.57,3.38,2.07,5.18
		c0.51,1.8,0.75,3.66,0.87,5.52c0.14,3.73-0.49,7.47-1.82,10.93c-1.32,3.47-3.19,6.67-5.64,9.5c-1.28,1.38-2.66,2.57-4.1,3.7
		c-0.71,0.58-1.47,1.09-2.21,1.63c-0.77,0.49-1.52,1.03-2.31,1.47c-3.14,1.87-6.52,3.37-10.04,4.36c-3.52,0.99-7.18,1.47-10.84,1.41
		c-3.65-0.1-7.28-0.71-10.74-1.86c-3.45-1.16-6.72-2.82-9.72-4.84c-2.98-2.06-5.71-4.48-8.05-7.22c4.89,5.3,11.12,9.35,17.96,11.45
		c6.85,2.08,14.27,2.03,21.07-0.01c6.79-2.05,13.08-5.96,17.89-11.07c2.25-2.66,4-5.82,5.22-9.09c1.24-3.28,1.81-6.8,1.66-10.28
		c-0.13-1.74-0.36-3.47-0.84-5.14c-0.47-1.68-1.14-3.3-1.96-4.84c-1.63-3.1-3.9-5.83-6.38-8.39c-2.44-2.54-5.25-4.77-8.17-6.78
		c-1.47-1-2.98-1.93-4.53-2.79c-1.54-0.87-3.15-1.6-4.79-2.37c-3.25-1.55-6.53-3.01-9.8-4.71c-3.19-1.8-6.29-3.78-9.1-6.16
		c-2.8-2.38-5.35-5.06-7.51-8.04c-1.09-1.49-2.06-3.06-2.92-4.69c-0.86-1.62-1.62-3.37-2.1-5.12l-0.02-0.07
		c-1.66-7.19-0.67-15,3.01-21.4c1.81-3.21,4.28-6.04,7.22-8.25c2.93-2.22,6.26-3.87,9.76-4.89c6.96-2.14,14.66-1.97,21.39,0.78
		c3.37,1.35,6.48,3.27,9.27,5.55C81.21,75.11,83.71,77.75,85.76,80.7"/>
	<path class="st0" d="M60.42,65.57c3.31,0.66,6.5,1.98,9.44,3.73c2.92,1.79,5.55,4.06,7.74,6.73c2.2,2.66,3.92,5.71,5.12,8.97
		c1.18,3.26,1.79,6.73,1.79,10.21c-0.02,3.47-0.64,6.94-1.82,10.2c-1.2,3.25-2.92,6.31-5.12,8.96c-2.18,2.67-4.81,4.95-7.72,6.75
		c-2.93,1.75-6.11,3.08-9.42,3.76c6.41-2.12,12.03-6.17,15.98-11.42c3.95-5.25,6.22-11.73,6.21-18.26
		c0.06-6.53-2.21-13.01-6.17-18.26C72.48,71.69,66.85,67.64,60.42,65.57"/>
	<path class="st0" d="M55.06,65.57c3.32,0.66,6.5,1.98,9.44,3.73c2.92,1.79,5.55,4.06,7.74,6.73c2.2,2.66,3.92,5.71,5.12,8.97
		c1.18,3.26,1.79,6.73,1.79,10.21c-0.02,3.47-0.63,6.94-1.82,10.2c-1.2,3.25-2.92,6.31-5.12,8.96c-2.18,2.67-4.81,4.95-7.72,6.75
		c-2.93,1.75-6.11,3.08-9.42,3.76c6.41-2.12,12.03-6.17,15.98-11.42c3.95-5.25,6.22-11.73,6.21-18.26
		c0.06-6.53-2.21-13.01-6.17-18.26C67.12,71.69,61.49,67.64,55.06,65.57"/>
	<path class="st0" d="M49.77,65.74c3.3,0.66,6.46,1.97,9.38,3.7c2.9,1.77,5.52,4.04,7.69,6.69c2.19,2.64,3.9,5.68,5.09,8.92
		c1.17,3.24,1.78,6.69,1.78,10.15c-0.02,3.45-0.63,6.9-1.81,10.14c-1.2,3.23-2.9,6.27-5.09,8.91c-2.17,2.66-4.78,4.93-7.68,6.71
		c-2.92,1.74-6.08,3.06-9.37,3.74c6.37-2.11,11.95-6.13,15.89-11.36c3.93-5.22,6.19-11.66,6.17-18.15
		c0.06-6.49-2.2-12.93-6.13-18.15C61.75,71.83,56.16,67.81,49.77,65.74"/>
	<path class="st0" d="M59.58,126.33c-17.04,0-30.9-13.86-30.9-30.9c0-17.04,13.86-30.9,30.9-30.9c17.04,0,30.9,13.86,30.9,30.9
		C90.48,112.47,76.62,126.33,59.58,126.33 M59.58,66.42c-15.99,0-29,13.01-29,29c0,15.99,13.01,29.01,29,29.01
		c15.99,0,29.01-13.01,29.01-29.01C88.59,79.44,75.58,66.42,59.58,66.42z"/>
	<polygon class="st0" points="52.32,65.67 51.38,226.48 50.43,65.67 	"/>
	<polygon class="st0" points="49.64,65.67 48.7,226.48 47.75,65.67 	"/>
	<polygon class="st0" points="46.96,65.67 46.02,226.48 45.07,65.67 	"/>
	<polygon class="st0" points="44.28,65.67 43.34,226.48 42.39,65.67 	"/>
	<path class="st0" d="M100.91,155.09l5.2-3.12c3.66,6.74,7.89,10.11,12.7,10.11c2.05,0,3.98-0.48,5.78-1.44
		c1.8-0.96,3.18-2.24,4.12-3.85c0.94-1.61,1.42-3.31,1.42-5.12c0-2.05-0.69-4.06-2.08-6.03c-1.91-2.72-5.41-5.99-10.49-9.82
		c-5.11-3.86-8.28-6.64-9.53-8.37c-2.16-2.89-3.25-6.01-3.25-9.36c0-2.66,0.64-5.09,1.91-7.28c1.28-2.19,3.07-3.92,5.39-5.18
		c2.32-1.26,4.83-1.89,7.55-1.89c2.89,0,5.58,0.71,8.1,2.14c2.51,1.43,5.17,4.06,7.97,7.89l-4.99,3.79
		c-2.3-3.05-4.27-5.06-5.89-6.03c-1.62-0.97-3.39-1.46-5.31-1.46c-2.47,0-4.49,0.75-6.06,2.25c-1.57,1.5-2.35,3.34-2.35,5.53
		c0,1.33,0.28,2.62,0.83,3.87c0.55,1.25,1.57,2.61,3.04,4.08c0.8,0.78,3.44,2.82,7.91,6.12c5.3,3.91,8.93,7.4,10.9,10.45
		c1.97,3.05,2.96,6.12,2.96,9.2c0,4.44-1.69,8.3-5.06,11.57c-3.37,3.27-7.47,4.91-12.3,4.91c-3.72,0-7.09-0.99-10.11-2.98
		C106.25,163.08,103.47,159.76,100.91,155.09"/>
	<polygon class="st0" points="143.62,111.27 143.62,105.28 177.16,105.28 177.16,111.27 163.51,111.27 163.51,166.5 157.27,166.5 
		157.27,111.27 	"/>
	<path class="st0" d="M211,105.28l28.55,61.22h-6.61l-9.63-20.14h-26.37l-9.54,20.14h-6.82l28.93-61.22H211z M210.23,118.28
		l-10.49,22.16h20.93L210.23,118.28z"/>
	<path class="st0" d="M249.37,105.28h12.19c6.8,0,11.4,0.28,13.82,0.83c3.64,0.83,6.59,2.62,8.87,5.35
		c2.27,2.74,3.41,6.1,3.41,10.11c0,3.33-0.78,6.26-2.35,8.79c-1.57,2.53-3.81,4.44-6.72,5.73c-2.91,1.29-6.94,1.95-12.07,1.98
		l22.02,28.43h-7.57l-22.02-28.43h-3.46v28.43h-6.12V105.28z M255.49,111.27v20.81l10.55,0.08c4.08,0,7.11-0.39,9.07-1.17
		c1.96-0.78,3.49-2.02,4.58-3.72c1.1-1.71,1.65-3.61,1.65-5.72c0-2.05-0.55-3.92-1.67-5.6c-1.11-1.68-2.57-2.88-4.38-3.6
		c-1.81-0.72-4.81-1.08-9-1.08H255.49z"/>
	<path class="st0" d="M107.78,175.59h1.1v1.57c0.43-0.6,0.93-1.05,1.5-1.34c0.56-0.3,1.2-0.45,1.89-0.45c1.21,0,2.25,0.44,3.12,1.31
		c0.86,0.88,1.3,1.93,1.3,3.16c0,1.26-0.43,2.33-1.28,3.2c-0.86,0.88-1.89,1.32-3.1,1.32c-0.68,0-1.31-0.14-1.88-0.42
		c-0.57-0.28-1.09-0.7-1.55-1.26v4.6h-1.1V175.59z M112.18,176.44c-0.95,0-1.75,0.33-2.4,1c-0.65,0.66-0.98,1.49-0.98,2.48
		c0,0.65,0.14,1.23,0.44,1.75c0.29,0.52,0.71,0.93,1.25,1.23c0.54,0.3,1.11,0.46,1.71,0.46c0.59,0,1.15-0.15,1.67-0.46
		c0.52-0.31,0.93-0.73,1.24-1.28c0.31-0.55,0.46-1.13,0.46-1.73c0-0.61-0.15-1.18-0.46-1.73c-0.31-0.54-0.72-0.97-1.24-1.27
		C113.35,176.59,112.79,176.44,112.18,176.44z"/>
	<path class="st0" d="M126.37,175.59h1.12v1.25c0.34-0.49,0.69-0.86,1.06-1.1c0.37-0.24,0.76-0.37,1.16-0.37
		c0.3,0,0.63,0.1,0.97,0.29l-0.57,0.93c-0.23-0.1-0.42-0.15-0.58-0.15c-0.37,0-0.72,0.15-1.06,0.45c-0.34,0.3-0.6,0.77-0.78,1.4
		c-0.14,0.49-0.21,1.47-0.21,2.96v2.89h-1.12V175.59z"/>
	<path class="st0" d="M143.72,175.37c1.32,0,2.41,0.48,3.27,1.43c0.79,0.87,1.18,1.9,1.18,3.09c0,1.19-0.42,2.24-1.25,3.13
		c-0.83,0.89-1.9,1.34-3.21,1.34c-1.31,0-2.38-0.44-3.22-1.34c-0.83-0.89-1.25-1.94-1.25-3.13c0-1.18,0.39-2.21,1.18-3.08
		C141.31,175.85,142.4,175.37,143.72,175.37 M143.72,176.45c-0.91,0-1.7,0.34-2.36,1.01c-0.66,0.68-0.99,1.49-0.99,2.45
		c0,0.62,0.15,1.19,0.45,1.73c0.3,0.53,0.7,0.95,1.22,1.24c0.51,0.29,1.07,0.44,1.68,0.44c0.61,0,1.17-0.14,1.68-0.44
		c0.51-0.29,0.91-0.7,1.22-1.24c0.3-0.53,0.45-1.11,0.45-1.73c0-0.96-0.33-1.78-0.99-2.45
		C145.41,176.79,144.63,176.45,143.72,176.45z"/>
	<path class="st0" d="M161.78,172.29v1.08c-0.4-0.17-0.75-0.26-1.04-0.26c-0.21,0-0.39,0.04-0.54,0.13
		c-0.14,0.09-0.23,0.19-0.27,0.3c-0.04,0.11-0.06,0.41-0.06,0.9l0,1.16h1.79v0.95h-1.79l-0.01,7.6h-1.1v-7.6h-1.12v-0.95h1.12v-1.34
		c0-0.61,0.06-1.05,0.17-1.31c0.11-0.26,0.3-0.47,0.58-0.63c0.27-0.16,0.6-0.24,0.98-0.24
		C160.86,172.07,161.29,172.15,161.78,172.29"/>
	<path class="st0" d="M178.56,181.31l0.93,0.49c-0.3,0.6-0.66,1.08-1.05,1.45c-0.4,0.37-0.85,0.65-1.34,0.84
		c-0.5,0.19-1.06,0.28-1.69,0.28c-1.39,0-2.49-0.46-3.27-1.37c-0.79-0.91-1.18-1.95-1.18-3.1c0-1.09,0.33-2.05,1-2.9
		c0.84-1.08,1.97-1.62,3.39-1.62c1.46,0,2.62,0.55,3.49,1.66c0.62,0.78,0.93,1.75,0.94,2.92h-7.69c0.02,0.99,0.34,1.81,0.95,2.44
		c0.61,0.64,1.37,0.95,2.27,0.95c0.44,0,0.86-0.07,1.27-0.23c0.41-0.15,0.76-0.35,1.05-0.6
		C177.91,182.27,178.23,181.87,178.56,181.31 M178.56,179.01c-0.15-0.59-0.36-1.06-0.64-1.41c-0.28-0.35-0.65-0.63-1.11-0.85
		c-0.46-0.21-0.95-0.32-1.45-0.32c-0.84,0-1.56,0.27-2.16,0.81c-0.44,0.39-0.77,0.98-1,1.77H178.56z"/>
	<path class="st0" d="M194.17,176.53l-0.71,0.73c-0.59-0.57-1.16-0.86-1.73-0.86c-0.36,0-0.66,0.12-0.92,0.35
		c-0.25,0.23-0.38,0.51-0.38,0.83c0,0.28,0.1,0.54,0.31,0.79c0.21,0.26,0.65,0.56,1.32,0.9c0.82,0.42,1.38,0.83,1.67,1.22
		c0.29,0.4,0.43,0.85,0.43,1.35c0,0.7-0.25,1.29-0.74,1.78c-0.49,0.49-1.11,0.73-1.85,0.73c-0.49,0-0.96-0.11-1.41-0.32
		c-0.45-0.21-0.82-0.51-1.11-0.89l0.69-0.79c0.56,0.63,1.16,0.95,1.79,0.95c0.44,0,0.82-0.14,1.13-0.43c0.31-0.28,0.47-0.61,0.47-1
		c0-0.32-0.1-0.6-0.31-0.84c-0.21-0.24-0.67-0.54-1.39-0.91c-0.77-0.4-1.3-0.79-1.58-1.18c-0.28-0.39-0.42-0.83-0.42-1.33
		c0-0.65,0.22-1.19,0.67-1.62c0.44-0.43,1-0.64,1.68-0.64C192.58,175.38,193.37,175.76,194.17,176.53"/>
	<path class="st0" d="M208.46,176.53l-0.71,0.73c-0.59-0.57-1.16-0.86-1.73-0.86c-0.36,0-0.66,0.12-0.92,0.35
		c-0.25,0.23-0.38,0.51-0.38,0.83c0,0.28,0.1,0.54,0.31,0.79c0.21,0.26,0.65,0.56,1.32,0.9c0.82,0.42,1.38,0.83,1.67,1.22
		c0.29,0.4,0.43,0.85,0.43,1.35c0,0.7-0.25,1.29-0.74,1.78c-0.49,0.49-1.11,0.73-1.85,0.73c-0.49,0-0.96-0.11-1.41-0.32
		c-0.45-0.21-0.82-0.51-1.11-0.89l0.69-0.79c0.56,0.63,1.16,0.95,1.79,0.95c0.44,0,0.82-0.14,1.13-0.43c0.31-0.28,0.46-0.61,0.46-1
		c0-0.32-0.1-0.6-0.31-0.84c-0.2-0.24-0.67-0.54-1.39-0.91c-0.77-0.4-1.3-0.79-1.58-1.18c-0.28-0.39-0.42-0.83-0.42-1.33
		c0-0.65,0.22-1.19,0.67-1.62c0.44-0.43,1.01-0.64,1.68-0.64C206.87,175.38,207.67,175.76,208.46,176.53"/>
	<path class="st0" d="M218.84,172.07c0.25,0,0.46,0.09,0.64,0.27c0.18,0.18,0.27,0.39,0.27,0.64c0,0.25-0.09,0.46-0.27,0.64
		c-0.18,0.18-0.39,0.27-0.64,0.27c-0.25,0-0.46-0.09-0.64-0.27c-0.18-0.18-0.27-0.39-0.27-0.64c0-0.25,0.09-0.47,0.27-0.64
		C218.39,172.16,218.6,172.07,218.84,172.07 M218.3,175.59h1.1v8.55h-1.1V175.59z"/>
	<path class="st0" d="M233.78,175.37c1.32,0,2.41,0.48,3.27,1.43c0.79,0.87,1.18,1.9,1.18,3.09c0,1.19-0.42,2.24-1.25,3.13
		c-0.83,0.89-1.9,1.34-3.21,1.34c-1.31,0-2.38-0.44-3.22-1.34c-0.83-0.89-1.25-1.94-1.25-3.13c0-1.18,0.39-2.21,1.18-3.08
		C231.36,175.85,232.45,175.37,233.78,175.37 M233.77,176.45c-0.92,0-1.7,0.34-2.36,1.01c-0.66,0.68-0.99,1.49-0.99,2.45
		c0,0.62,0.15,1.19,0.45,1.73c0.3,0.53,0.7,0.95,1.22,1.24c0.51,0.29,1.07,0.44,1.68,0.44c0.61,0,1.17-0.14,1.68-0.44
		c0.51-0.29,0.92-0.7,1.22-1.24c0.3-0.53,0.45-1.11,0.45-1.73c0-0.96-0.33-1.78-0.99-2.45
		C235.47,176.79,234.68,176.45,233.77,176.45z"/>
	<path class="st0" d="M248.32,175.59h1.1v1.53c0.44-0.59,0.93-1.03,1.46-1.32c0.53-0.29,1.12-0.44,1.75-0.44
		c0.64,0,1.21,0.16,1.7,0.49c0.5,0.33,0.86,0.76,1.1,1.31c0.24,0.55,0.35,1.41,0.35,2.57v4.4h-1.1v-4.08c0-0.98-0.04-1.64-0.12-1.97
		c-0.13-0.57-0.37-0.99-0.73-1.28c-0.36-0.29-0.83-0.43-1.42-0.43c-0.67,0-1.26,0.22-1.79,0.66c-0.53,0.44-0.87,0.98-1.04,1.63
		c-0.11,0.42-0.16,1.2-0.16,2.33v3.14h-1.1V175.59z"/>
	<path class="st0" d="M274.7,175.59v8.55h-1.09v-1.47c-0.46,0.56-0.98,0.98-1.55,1.26c-0.58,0.28-1.2,0.42-1.88,0.42
		c-1.21,0-2.24-0.44-3.1-1.32c-0.86-0.88-1.28-1.94-1.28-3.2c0-1.23,0.43-2.28,1.3-3.16c0.86-0.87,1.9-1.31,3.12-1.31
		c0.7,0,1.34,0.15,1.91,0.45c0.57,0.3,1.07,0.75,1.5,1.34v-1.57H274.7z M270.3,176.44c-0.61,0-1.18,0.15-1.7,0.45
		c-0.52,0.3-0.93,0.73-1.23,1.27c-0.31,0.54-0.46,1.12-0.46,1.73c0,0.6,0.15,1.18,0.46,1.73c0.31,0.55,0.72,0.98,1.24,1.28
		c0.52,0.31,1.08,0.46,1.68,0.46c0.6,0,1.17-0.15,1.71-0.46c0.54-0.3,0.95-0.71,1.24-1.23c0.29-0.52,0.44-1.1,0.44-1.75
		c0-0.99-0.33-1.82-0.98-2.48C272.05,176.77,271.25,176.44,270.3,176.44z"/>
	<rect x="285.06" y="172.29" class="st0" width="1.1" height="11.85"/>
	<path class="st0" d="M295.08,105.28c0.68,0,1.32,0.13,1.92,0.38c0.6,0.26,1.14,0.62,1.61,1.1c0.46,0.46,0.8,0.98,1.04,1.57
		c0.24,0.59,0.36,1.22,0.36,1.88c0,0.67-0.12,1.3-0.37,1.9c-0.25,0.6-0.61,1.12-1.08,1.57c-0.47,0.46-1.01,0.82-1.61,1.06
		c-0.6,0.25-1.23,0.37-1.87,0.37c-0.66,0-1.28-0.13-1.88-0.38c-0.6-0.26-1.13-0.62-1.61-1.1c-0.46-0.46-0.81-0.99-1.05-1.58
		c-0.24-0.59-0.36-1.2-0.36-1.85c0-0.45,0.06-0.89,0.18-1.31c0.12-0.43,0.3-0.84,0.54-1.24c0.44-0.75,1.03-1.33,1.76-1.75
		C293.39,105.48,294.19,105.28,295.08,105.28 M295.09,106.1c-0.56,0-1.08,0.1-1.56,0.29c-0.48,0.2-0.91,0.48-1.29,0.87
		c-0.4,0.4-0.71,0.85-0.92,1.36c-0.21,0.51-0.32,1.03-0.32,1.57c0,0.55,0.1,1.06,0.3,1.55c0.2,0.49,0.49,0.93,0.88,1.31
		c0.39,0.4,0.84,0.71,1.34,0.92c0.5,0.21,1.02,0.32,1.56,0.32c0.53,0,1.04-0.1,1.54-0.31c0.5-0.21,0.95-0.5,1.36-0.89
		c0.38-0.37,0.68-0.8,0.89-1.29c0.21-0.49,0.32-1,0.32-1.53c0-0.58-0.1-1.12-0.29-1.61c-0.2-0.49-0.49-0.93-0.87-1.32
		c-0.4-0.41-0.84-0.71-1.34-0.92C296.19,106.2,295.66,106.1,295.09,106.1z M293.05,107.37h2.14c0.78,0,1.36,0.13,1.75,0.39
		c0.39,0.26,0.58,0.65,0.58,1.17c0,0.36-0.11,0.67-0.32,0.93c-0.21,0.25-0.5,0.43-0.88,0.52l1.22,2.44h-1.48l-1.03-2.23h-0.65v2.23
		h-1.33V107.37z M294.37,108.21v1.58h0.65c0.39,0,0.67-0.06,0.85-0.19c0.18-0.12,0.27-0.32,0.27-0.58c0-0.28-0.1-0.48-0.29-0.62
		c-0.19-0.13-0.49-0.2-0.89-0.2H294.37z"/>
</g>
</svg>
