<?xml version="1.0" encoding="utf-8"?>
<!-- Generator: Adobe Illustrator 26.4.1, SVG Export Plug-In . SVG Version: 6.00 Build 0)  -->
<svg version="1.1" id="Capa_1" xmlns="http://www.w3.org/2000/svg" xmlns:xlink="http://www.w3.org/1999/xlink" x="0px" y="0px"
	 viewBox="0 0 56 49" style="enable-background:new 0 0 56 49;" xml:space="preserve">
<style type="text/css">
	.st0{fill:none;stroke:#484848;stroke-width:1.3824;}
	.st1{fill-rule:evenodd;clip-rule:evenodd;fill:#A28858;}
	.st2{fill-rule:evenodd;clip-rule:evenodd;fill:#EFD099;}
	.st3{fill-rule:evenodd;clip-rule:evenodd;fill:#FFFFFF;stroke:#484848;stroke-width:1.2288;}
	.st4{fill-rule:evenodd;clip-rule:evenodd;fill:#484848;}
</style>
<g id="Desktop">
	<g id="Footer" transform="translate(0.000000, 5370.000000)">
		<g id="Group-41" transform="translate(498.000000, 82.000000)">
			<g id="Group-16">
				<path id="Rectangle-193" class="st0" d="M-495.2-5451h50.3c1,0,1.8,0.8,1.8,1.8v6c0,1-0.8,1.8-1.8,1.8h-50.3
					c-1,0-1.8-0.8-1.8-1.8v-6C-497-5450.2-496.2-5451-495.2-5451z"/>
				<path id="Rectangle-194" class="st0" d="M-495-5441.3h49.1v36.3l0,0c0,0.7-0.6,1.2-1.2,1.2h-46.6l0,0c-0.7,0-1.2-0.6-1.2-1.2
					V-5441.3z"/>
				<polygon id="Fill-9" class="st1" points="-475,-5430.5 -473.4,-5432.1 -471.7,-5430.5 -470.1,-5432.1 -468.5,-5430.5 
					-466.8,-5432.1 -465.2,-5430.5 -465.2,-5442 -475,-5442 				"/>
				<rect id="Rectangle-195" x="-475" y="-5451.7" class="st2" width="9.8" height="10.4"/>
				<g id="Group-12" transform="translate(7.000000, 33.000000)">
					<path id="Fill-15" class="st3" d="M-478.1-5441.1h-18.4c-0.3,0-0.5-0.2-0.5-0.5v-10c0-0.3,0.2-0.5,0.5-0.5h18.4
						c0.3,0,0.5,0.2,0.5,0.5v10C-477.7-5441.3-477.9-5441.1-478.1-5441.1"/>
					<path id="Fill-16" class="st4" d="M-492.5-5446.4c-0.3,0-0.5-0.1-0.7-0.3c-0.1-0.1-0.2-0.3-0.2-0.5c0-0.5,0.4-0.9,0.9-0.9
						s0.9,0.4,0.9,0.9C-491.6-5446.8-492-5446.4-492.5-5446.4 M-492.5-5449.6c-1.3,0-2.3,1-2.3,2.3c0,0.5,0.1,0.9,0.4,1.2l1.9,2.6
						l1.9-2.6c0.2-0.4,0.4-0.8,0.4-1.2C-490.1-5448.5-491.2-5449.6-492.5-5449.6"/>
					<path id="Fill-17" class="st4" d="M-487.8-5448.4h6.1l0,0c0.3,0,0.6-0.3,0.6-0.6l0,0l0,0c0-0.3-0.3-0.6-0.6-0.6h-6.1l0,0
						c-0.3,0-0.6,0.3-0.6,0.6l0,0l0,0C-488.4-5448.6-488.1-5448.4-487.8-5448.4z"/>
					<path id="Fill-18" class="st4" d="M-487.8-5445.9h4.3l0,0c0.3,0,0.6-0.3,0.6-0.6l0,0l0,0c0-0.3-0.3-0.6-0.6-0.6h-4.3l0,0
						c-0.3,0-0.6,0.3-0.6,0.6l0,0l0,0C-488.4-5446.2-488.1-5445.9-487.8-5445.9z"/>
					<path id="Fill-19" class="st4" d="M-487.8-5443.5h4.9l0,0c0.3,0,0.6-0.3,0.6-0.6l0,0l0,0c0-0.3-0.3-0.6-0.6-0.6h-4.9l0,0
						c-0.3,0-0.6,0.3-0.6,0.6l0,0l0,0C-488.4-5443.8-488.1-5443.5-487.8-5443.5z"/>
				</g>
			</g>
		</g>
	</g>
</g>
</svg>
