<?xml version="1.0" encoding="utf-8"?>
<!-- Generator: Adobe Illustrator 26.4.1, SVG Export Plug-In . SVG Version: 6.00 Build 0)  -->
<svg version="1.1" id="Capa_1" xmlns="http://www.w3.org/2000/svg" xmlns:xlink="http://www.w3.org/1999/xlink" x="0px" y="0px"
	 viewBox="0 0 56 49" style="enable-background:new 0 0 56 49;" xml:space="preserve">
<style type="text/css">
	.st0{fill:#FFFFFF;stroke:#484848;stroke-width:1.3824;}
	.st1{fill-rule:evenodd;clip-rule:evenodd;fill:#A28858;}
	.st2{fill-rule:evenodd;clip-rule:evenodd;fill:#EFD099;}
	.st3{fill-rule:evenodd;clip-rule:evenodd;fill:#FFFFFF;stroke:#484848;stroke-width:1.2288;}
	.st4{fill-rule:evenodd;clip-rule:evenodd;fill:#484848;}
</style>
<g id="Footer" transform="translate(0.000000, 5370.000000)">
	<g id="Group-16">
		<path id="Rectangle-193" class="st0" d="M2.9-5369.3h50.3c1,0,1.8,0.8,1.8,1.8v6c0,1-0.8,1.8-1.8,1.8H2.9c-1,0-1.8-0.8-1.8-1.8v-6
			C1.1-5368.5,1.9-5369.3,2.9-5369.3z"/>
		<path id="Rectangle-194" class="st0" d="M3.1-5359.6h49.1v36.3l0,0c0,0.7-0.6,1.2-1.2,1.2H4.4l0,0c-0.7,0-1.2-0.6-1.2-1.2
			L3.1-5359.6L3.1-5359.6z"/>
		<polygon id="Fill-9" class="st1" points="23.1,-5348.8 24.7,-5350.4 26.4,-5348.8 28,-5350.4 29.6,-5348.8 31.3,-5350.4 
			32.9,-5348.8 32.9,-5360.3 23.1,-5360.3 		"/>
		<rect id="Rectangle-195" x="23.1" y="-5370" class="st2" width="9.8" height="10.4"/>
		<g id="Group-12" transform="translate(7.000000, 33.000000)">
			<path id="Fill-15" class="st3" d="M20-5359.4H1.6c-0.3,0-0.5-0.2-0.5-0.5v-10c0-0.3,0.2-0.5,0.5-0.5H20c0.3,0,0.5,0.2,0.5,0.5v10
				C20.4-5359.6,20.2-5359.4,20-5359.4"/>
			<path id="Fill-16" class="st4" d="M5.6-5364.7c-0.3,0-0.5-0.1-0.7-0.3c-0.1-0.1-0.2-0.3-0.2-0.5c0-0.5,0.4-0.9,0.9-0.9
				s0.9,0.4,0.9,0.9C6.5-5365.1,6.1-5364.7,5.6-5364.7 M5.6-5367.9c-1.3,0-2.3,1-2.3,2.3c0,0.5,0.1,0.9,0.4,1.2l1.9,2.6l1.9-2.6
				c0.2-0.4,0.4-0.8,0.4-1.2C8-5366.8,6.9-5367.9,5.6-5367.9"/>
			<path id="Fill-17" class="st4" d="M10.3-5366.7h6.1l0,0c0.3,0,0.6-0.3,0.6-0.6l0,0l0,0c0-0.3-0.3-0.6-0.6-0.6h-6.1l0,0
				c-0.3,0-0.6,0.3-0.6,0.6l0,0l0,0C9.7-5366.9,10-5366.7,10.3-5366.7z"/>
			<path id="Fill-18" class="st4" d="M10.3-5364.2h4.3l0,0c0.3,0,0.6-0.3,0.6-0.6l0,0l0,0c0-0.3-0.3-0.6-0.6-0.6h-4.3l0,0
				c-0.3,0-0.6,0.3-0.6,0.6l0,0l0,0C9.7-5364.5,10-5364.2,10.3-5364.2z"/>
			<path id="Fill-19" class="st4" d="M10.3-5361.8h4.9l0,0c0.3,0,0.6-0.3,0.6-0.6l0,0l0,0c0-0.3-0.3-0.6-0.6-0.6h-4.9l0,0
				c-0.3,0-0.6,0.3-0.6,0.6l0,0l0,0C9.7-5362.1,10-5361.8,10.3-5361.8z"/>
		</g>
	</g>
</g>
</svg>
