<?xml version="1.0" encoding="utf-8"?>
<!-- Generator: Adobe Illustrator 26.4.1, SVG Export Plug-In . SVG Version: 6.00 Build 0)  -->
<svg version="1.1" id="Capa_1" xmlns="http://www.w3.org/2000/svg" xmlns:xlink="http://www.w3.org/1999/xlink" x="0px" y="0px"
	 viewBox="0 0 1080 585" style="enable-background:new 0 0 1080 585;" xml:space="preserve">
<g>
	<path d="M251.48,68.1c-7.41-9.99-16.42-18.68-26.18-26.27c-9.77-7.57-20.57-13.84-32.11-18.13c-11.53-4.31-23.79-6.53-36.01-6.55
		c-12.23-0.33-24.5,1.79-36.15,5.44c-23.32,7.19-44.1,22.83-55.55,44.32c-2.9,5.31-5.3,10.88-7.16,16.64
		c-1.81,5.77-3.07,11.71-3.86,17.7c-1.56,11.98-1.03,24.29,1.81,36l-0.07-0.24c1.71,5.98,4.12,11.41,7.01,16.83
		c2.87,5.37,6.11,10.56,9.75,15.47c7.23,9.86,15.78,18.74,25.15,26.63c9.4,7.9,19.83,14.47,30.55,20.46
		c10.87,5.58,22.38,10.65,33.7,15.96c5.62,2.64,11.42,5.31,16.95,8.47c5.54,3.11,10.94,6.46,16.16,10.06
		c10.39,7.27,20.3,15.18,29.13,24.47c8.73,9.07,16.98,19.07,22.93,30.53c2.98,5.7,5.43,11.72,7.16,17.95
		c1.77,6.23,2.58,12.67,3.03,19.11c0.48,12.91-1.71,25.86-6.31,37.83c-4.56,12-11.06,23.11-19.53,32.88
		c-4.45,4.77-9.21,8.89-14.21,12.82c-2.46,2.01-5.1,3.78-7.65,5.65c-2.67,1.7-5.25,3.55-8.02,5.11
		c-10.88,6.49-22.56,11.67-34.76,15.09c-12.19,3.43-24.87,5.08-37.52,4.89c-12.64-0.34-25.22-2.45-37.18-6.43
		c-11.96-4-23.26-9.75-33.66-16.75c-10.32-7.12-19.76-15.51-27.87-25.02c16.94,18.34,38.51,32.36,62.21,39.64
		c23.72,7.2,49.41,7.03,72.96-0.02c23.5-7.09,45.28-20.65,61.94-38.33c7.78-9.21,13.85-20.14,18.09-31.49
		c4.31-11.37,6.27-23.54,5.77-35.6c-0.46-6.01-1.24-12.01-2.92-17.81c-1.64-5.8-3.95-11.41-6.78-16.75
		c-5.65-10.74-13.49-20.19-22.1-29.05c-8.44-8.79-18.19-16.5-28.29-23.49c-5.08-3.47-10.32-6.68-15.69-9.66
		c-5.33-3.02-10.92-5.52-16.6-8.2c-11.26-5.35-22.6-10.41-33.92-16.3c-11.04-6.24-21.78-13.09-31.49-21.34
		c-9.68-8.24-18.53-17.52-26.02-27.85c-3.77-5.14-7.14-10.59-10.11-16.25c-2.97-5.6-5.61-11.69-7.29-17.73l-0.07-0.24
		c-5.75-24.9-2.33-51.93,10.43-74.11c6.26-11.11,14.83-20.92,24.99-28.57c10.14-7.68,21.68-13.4,33.8-16.94
		c24.09-7.4,50.77-6.81,74.08,2.68c11.66,4.68,22.42,11.33,32.08,19.22C235.74,48.76,244.41,57.88,251.48,68.1"/>
	<path d="M270.05,68.1c-7.41-9.99-16.42-18.68-26.18-26.27c-9.78-7.57-20.57-13.84-32.11-18.13c-11.53-4.31-23.78-6.53-36.02-6.55
		c-12.22-0.33-24.5,1.79-36.14,5.44c-23.32,7.19-44.1,22.83-55.55,44.32c-2.89,5.31-5.3,10.88-7.15,16.64
		c-1.82,5.77-3.07,11.71-3.86,17.7c-1.56,11.98-1.02,24.29,1.81,36l-0.07-0.24c1.71,5.98,4.13,11.41,7.01,16.83
		c2.86,5.37,6.11,10.56,9.75,15.47c7.24,9.86,15.78,18.74,25.15,26.63c9.4,7.9,19.83,14.47,30.55,20.46
		c10.87,5.58,22.38,10.65,33.7,15.96c5.62,2.64,11.42,5.31,16.95,8.47c5.54,3.11,10.93,6.46,16.16,10.06
		c10.39,7.27,20.3,15.18,29.13,24.47c8.73,9.07,16.98,19.07,22.93,30.53c2.98,5.7,5.43,11.72,7.16,17.95
		c1.77,6.23,2.58,12.67,3.03,19.11c0.48,12.91-1.71,25.86-6.31,37.83c-4.55,12-11.06,23.11-19.53,32.88
		c-4.45,4.77-9.21,8.89-14.22,12.82c-2.45,2.01-5.09,3.78-7.65,5.65c-2.67,1.7-5.25,3.55-8.02,5.11
		c-10.88,6.49-22.56,11.67-34.76,15.09c-12.19,3.43-24.88,5.08-37.52,4.89c-12.64-0.34-25.22-2.45-37.18-6.43
		c-11.96-4-23.26-9.75-33.66-16.75c-10.32-7.12-19.76-15.51-27.87-25.02c16.94,18.34,38.5,32.36,62.2,39.64
		c23.72,7.2,49.41,7.03,72.96-0.02c23.5-7.09,45.27-20.65,61.94-38.33c7.78-9.21,13.85-20.14,18.09-31.49
		c4.31-11.37,6.27-23.54,5.77-35.6c-0.46-6.01-1.24-12.01-2.92-17.81c-1.64-5.8-3.95-11.41-6.78-16.75
		c-5.65-10.74-13.49-20.19-22.1-29.05c-8.44-8.79-18.19-16.5-28.29-23.49c-5.08-3.47-10.33-6.68-15.69-9.66
		c-5.34-3.02-10.92-5.52-16.6-8.2c-11.26-5.35-22.6-10.41-33.92-16.3c-11.04-6.24-21.78-13.09-31.49-21.34
		c-9.68-8.24-18.53-17.52-26.02-27.85c-3.77-5.14-7.14-10.59-10.11-16.25c-2.97-5.6-5.6-11.69-7.29-17.73l-0.07-0.24
		c-5.75-24.9-2.33-51.93,10.44-74.11c6.26-11.11,14.83-20.92,24.99-28.57c10.14-7.68,21.68-13.4,33.8-16.94
		c24.09-7.4,50.77-6.81,74.08,2.68c11.66,4.68,22.42,11.33,32.08,19.22C254.3,48.76,262.97,57.88,270.05,68.1"/>
	<path d="M288.6,68.1c-7.41-9.99-16.42-18.68-26.18-26.27c-9.78-7.57-20.57-13.84-32.11-18.13c-11.53-4.31-23.79-6.53-36.01-6.55
		c-12.23-0.33-24.5,1.79-36.15,5.44c-23.31,7.19-44.1,22.83-55.54,44.32c-2.9,5.31-5.3,10.88-7.16,16.64
		c-1.81,5.77-3.07,11.71-3.86,17.7c-1.56,11.98-1.02,24.29,1.81,36l-0.07-0.24c1.71,5.98,4.13,11.41,7.01,16.83
		c2.87,5.37,6.11,10.56,9.75,15.47c7.23,9.86,15.78,18.74,25.15,26.63c9.4,7.9,19.83,14.47,30.55,20.46
		c10.87,5.58,22.37,10.65,33.7,15.96c5.62,2.64,11.42,5.31,16.94,8.47c5.54,3.11,10.94,6.46,16.16,10.06
		c10.39,7.27,20.31,15.18,29.13,24.47c8.73,9.07,16.98,19.07,22.93,30.53c2.99,5.7,5.43,11.72,7.16,17.95
		c1.77,6.23,2.58,12.67,3.03,19.11c0.48,12.91-1.71,25.86-6.31,37.83c-4.56,12-11.06,23.11-19.53,32.88
		c-4.45,4.77-9.21,8.89-14.21,12.82c-2.45,2.01-5.09,3.78-7.65,5.65c-2.67,1.7-5.25,3.55-8.01,5.11
		c-10.88,6.49-22.56,11.67-34.76,15.09c-12.2,3.43-24.87,5.08-37.52,4.89c-12.65-0.34-25.22-2.45-37.18-6.43
		c-11.96-4-23.26-9.75-33.66-16.75c-10.32-7.12-19.76-15.51-27.87-25.02c16.93,18.34,38.5,32.36,62.2,39.64
		c23.73,7.2,49.41,7.03,72.96-0.02c23.5-7.09,45.27-20.65,61.94-38.33c7.78-9.21,13.85-20.14,18.09-31.49
		c4.3-11.37,6.27-23.54,5.77-35.6c-0.46-6.01-1.23-12.01-2.91-17.81c-1.64-5.8-3.95-11.41-6.78-16.75
		c-5.65-10.74-13.49-20.19-22.1-29.05c-8.44-8.79-18.19-16.5-28.28-23.49c-5.08-3.47-10.33-6.68-15.69-9.66
		c-5.33-3.02-10.92-5.52-16.6-8.2c-11.26-5.35-22.6-10.41-33.92-16.3c-11.04-6.24-21.78-13.09-31.49-21.34
		c-9.68-8.24-18.53-17.52-26.02-27.85c-3.77-5.14-7.14-10.59-10.11-16.25c-2.97-5.6-5.6-11.69-7.29-17.73l-0.07-0.24
		c-5.75-24.9-2.33-51.93,10.44-74.11c6.26-11.11,14.82-20.92,24.99-28.57c10.14-7.68,21.68-13.4,33.8-16.94
		c24.09-7.4,50.77-6.81,74.08,2.68c11.66,4.68,22.42,11.33,32.08,19.22C272.86,48.76,281.53,57.88,288.6,68.1"/>
	<path d="M307.17,68.1c-7.41-9.99-16.42-18.68-26.18-26.27c-9.77-7.57-20.57-13.84-32.11-18.13c-11.53-4.31-23.79-6.53-36.01-6.55
		c-12.23-0.33-24.5,1.79-36.15,5.44c-23.32,7.19-44.1,22.83-55.55,44.32c-2.9,5.31-5.3,10.88-7.16,16.64
		c-1.82,5.77-3.07,11.71-3.86,17.7c-1.56,11.98-1.03,24.29,1.8,36l-0.07-0.24c1.71,5.98,4.12,11.41,7.01,16.83
		c2.87,5.37,6.11,10.56,9.75,15.47c7.23,9.86,15.78,18.74,25.15,26.63c9.4,7.9,19.83,14.47,30.55,20.46
		c10.88,5.58,22.38,10.65,33.7,15.96c5.62,2.64,11.42,5.31,16.95,8.47c5.54,3.11,10.94,6.46,16.16,10.06
		c10.39,7.27,20.3,15.18,29.13,24.47c8.73,9.07,16.98,19.07,22.93,30.53c2.99,5.7,5.43,11.72,7.16,17.95
		c1.77,6.23,2.58,12.67,3.02,19.11c0.48,12.91-1.71,25.86-6.31,37.83c-4.56,12-11.06,23.11-19.53,32.88
		c-4.45,4.77-9.21,8.89-14.21,12.82c-2.46,2.01-5.1,3.78-7.65,5.65c-2.67,1.7-5.25,3.55-8.01,5.11
		c-10.88,6.49-22.56,11.67-34.76,15.09c-12.19,3.43-24.87,5.08-37.52,4.89c-12.65-0.34-25.22-2.45-37.18-6.43
		c-11.96-4-23.26-9.75-33.66-16.75c-10.32-7.12-19.75-15.51-27.87-25.02c16.94,18.34,38.5,32.36,62.2,39.64
		c23.72,7.2,49.41,7.03,72.96-0.02c23.5-7.09,45.28-20.65,61.94-38.33c7.78-9.21,13.85-20.14,18.09-31.49
		c4.31-11.37,6.27-23.54,5.77-35.6c-0.46-6.01-1.23-12.01-2.91-17.81c-1.64-5.8-3.95-11.41-6.78-16.75
		c-5.65-10.74-13.49-20.19-22.1-29.05c-8.44-8.79-18.19-16.5-28.28-23.49c-5.08-3.47-10.33-6.68-15.69-9.66
		c-5.33-3.02-10.92-5.52-16.6-8.2c-11.26-5.35-22.6-10.41-33.92-16.3c-11.04-6.24-21.78-13.09-31.49-21.34
		c-9.68-8.24-18.53-17.52-26.02-27.85c-3.76-5.14-7.14-10.59-10.11-16.25c-2.96-5.6-5.61-11.69-7.29-17.73l-0.07-0.24
		c-5.75-24.9-2.33-51.93,10.43-74.11c6.26-11.11,14.82-20.92,24.99-28.57c10.14-7.68,21.68-13.4,33.8-16.94
		c24.09-7.4,50.77-6.81,74.08,2.68c11.66,4.68,22.42,11.33,32.08,19.22C291.42,48.76,300.09,57.88,307.17,68.1"/>
	<path d="M219.43,15.71c11.48,2.29,22.52,6.85,32.68,12.9c10.1,6.18,19.23,14.07,26.79,23.32c7.63,9.19,13.58,19.79,17.72,31.05
		c4.08,11.29,6.18,23.31,6.19,35.35c-0.07,12.03-2.2,24.04-6.29,35.32c-4.17,11.25-10.1,21.84-17.72,31.04
		c-7.54,9.25-16.65,17.16-26.73,23.36c-10.15,6.07-21.17,10.67-32.63,13.03c22.2-7.34,41.64-21.35,55.35-39.55
		c13.68-18.18,21.55-40.61,21.49-63.22c0.19-22.61-7.66-45.06-21.36-63.23C261.18,36.9,241.68,22.9,219.43,15.71"/>
	<path d="M200.87,15.71c11.48,2.29,22.51,6.85,32.68,12.9c10.1,6.18,19.23,14.07,26.79,23.32c7.62,9.19,13.58,19.79,17.72,31.05
		c4.08,11.29,6.18,23.31,6.19,35.35c-0.07,12.03-2.2,24.04-6.29,35.32c-4.17,11.25-10.1,21.84-17.72,31.04
		c-7.55,9.25-16.66,17.16-26.74,23.36c-10.15,6.07-21.17,10.67-32.63,13.03c22.2-7.34,41.64-21.35,55.34-39.55
		c13.68-18.18,21.55-40.61,21.49-63.22c0.19-22.61-7.66-45.06-21.36-63.23C242.62,36.9,223.12,22.9,200.87,15.71"/>
	<path d="M182.55,16.31c11.41,2.27,22.38,6.81,32.49,12.82c10.04,6.14,19.12,13.99,26.64,23.18c7.59,9.14,13.5,19.67,17.62,30.87
		c4.06,11.23,6.15,23.18,6.15,35.14c-0.07,11.96-2.19,23.9-6.26,35.12c-4.14,11.19-10.05,21.72-17.62,30.86
		c-7.5,9.2-16.56,17.06-26.58,23.22c-10.09,6.03-21.05,10.6-32.44,12.95c22.07-7.31,41.39-21.24,55.01-39.33
		c13.6-18.07,21.42-40.37,21.35-62.83c0.2-22.47-7.6-44.79-21.22-62.85C224.05,37.39,204.67,23.47,182.55,16.31"/>
	<path d="M216.54,226.09c-58.99,0-106.98-47.99-106.98-106.98c0-58.99,47.99-106.98,106.98-106.98
		c58.99,0,106.98,47.99,106.98,106.98C323.52,178.1,275.53,226.09,216.54,226.09 M216.54,18.68c-55.38,0-100.43,45.06-100.43,100.43
		c0,55.38,45.05,100.43,100.43,100.43c55.38,0,100.43-45.05,100.43-100.43C316.97,63.73,271.92,18.68,216.54,18.68z"/>
	<polygon points="191.4,16.06 188.13,572.87 184.86,16.06 	"/>
	<polygon points="182.12,16.06 178.85,572.87 175.58,16.06 	"/>
	<polygon points="172.84,16.06 169.57,572.87 166.29,16.06 	"/>
	<polygon points="163.56,16.06 160.29,572.87 157.02,16.06 	"/>
	<path d="M359.65,325.7l18.01-10.81c12.68,23.34,27.33,35.02,43.96,35.02c7.11,0,13.78-1.66,20.03-4.97
		c6.24-3.31,11-7.75,14.27-13.33c3.26-5.57,4.9-11.48,4.9-17.72c0-7.11-2.41-14.07-7.21-20.9c-6.63-9.42-18.73-20.75-36.32-34.01
		c-17.68-13.35-28.68-23.01-33-28.97c-7.49-9.99-11.24-20.8-11.24-32.43c0-9.22,2.21-17.63,6.63-25.22
		c4.42-7.59,10.64-13.57,18.67-17.94c8.02-4.37,16.74-6.56,26.15-6.56c9.99,0,19.33,2.47,28.03,7.42
		c8.69,4.95,17.89,14.05,27.59,27.31l-17.29,13.11c-7.98-10.57-14.77-17.53-20.39-20.9c-5.62-3.36-11.75-5.04-18.37-5.04
		c-8.55,0-15.54,2.6-20.97,7.78c-5.43,5.19-8.14,11.58-8.14,19.17c0,4.61,0.96,9.08,2.88,13.41c1.92,4.32,5.43,9.03,10.52,14.12
		c2.79,2.69,11.91,9.75,27.39,21.18c18.35,13.55,30.93,25.61,37.75,36.17c6.82,10.57,10.23,21.18,10.23,31.85
		c0,15.37-5.83,28.73-17.5,40.06c-11.67,11.34-25.87,17.01-42.59,17.01c-12.88,0-24.55-3.44-35.02-10.3
		C378.14,353.35,368.49,341.84,359.65,325.7"/>
	<polygon points="507.5,173.96 507.5,153.21 623.66,153.21 623.66,173.96 576.39,173.96 576.39,365.19 554.77,365.19 554.77,173.96 
			"/>
	<path d="M740.82,153.21l98.86,211.99H816.8l-33.34-69.75h-91.32l-33.02,69.75h-23.63l100.16-211.99H740.82z M738.15,198.24
		l-36.33,76.74h72.48L738.15,198.24z"/>
	<path d="M873.69,153.21h42.22c23.54,0,39.49,0.96,47.84,2.89c12.59,2.88,22.82,9.06,30.7,18.54c7.88,9.48,11.82,21.14,11.82,34.99
		c0,11.54-2.72,21.69-8.14,30.45c-5.43,8.75-13.19,15.37-23.28,19.84c-10.09,4.48-24.02,6.76-41.79,6.86l76.24,98.43h-26.21
		l-76.23-98.43h-11.98v98.43h-21.18V153.21z M894.87,173.96v72.05l36.52,0.29c14.14,0,24.61-1.34,31.39-4.03
		c6.78-2.69,12.08-6.99,15.88-12.9c3.8-5.91,5.7-12.51,5.7-19.82c0-7.11-1.92-13.57-5.77-19.38c-3.85-5.81-8.9-9.97-15.16-12.47
		c-6.26-2.49-16.65-3.74-31.18-3.74H894.87z"/>
	<path d="M383.41,396.69h3.82v5.44c1.5-2.06,3.23-3.62,5.19-4.65c1.96-1.03,4.14-1.55,6.55-1.55c4.2,0,7.8,1.51,10.79,4.54
		c2.99,3.03,4.49,6.68,4.49,10.94c0,4.36-1.48,8.05-4.44,11.09c-2.96,3.04-6.54,4.56-10.73,4.56c-2.36,0-4.52-0.49-6.5-1.47
		c-1.98-0.98-3.76-2.44-5.35-4.38v15.92h-3.82V396.69z M398.65,399.6c-3.29,0-6.07,1.15-8.32,3.45c-2.25,2.3-3.38,5.17-3.38,8.6
		c0,2.24,0.5,4.26,1.51,6.06c1.01,1.8,2.45,3.21,4.32,4.26c1.88,1.05,3.85,1.58,5.93,1.58c2.04,0,3.97-0.53,5.77-1.59
		c1.8-1.06,3.23-2.54,4.31-4.44c1.07-1.9,1.6-3.9,1.6-5.98c0-2.11-0.53-4.1-1.59-5.99c-1.06-1.88-2.49-3.35-4.28-4.39
		C402.72,400.12,400.77,399.6,398.65,399.6z"/>
	<path d="M447.79,396.69h3.89v4.33c1.16-1.71,2.39-2.98,3.67-3.82c1.29-0.84,2.63-1.27,4.03-1.27c1.05,0,2.18,0.34,3.37,1.01
		l-1.99,3.2c-0.8-0.34-1.47-0.52-2.01-0.52c-1.27,0-2.5,0.53-3.68,1.57c-1.18,1.04-2.08,2.66-2.69,4.85
		c-0.48,1.69-0.71,5.1-0.71,10.23v10.01h-3.89V396.69z"/>
	<path d="M507.88,395.93c4.56,0,8.34,1.66,11.34,4.95c2.72,3.01,4.09,6.58,4.09,10.7c0,4.14-1.44,7.75-4.32,10.85
		c-2.88,3.09-6.58,4.63-11.11,4.63c-4.54,0-8.25-1.54-11.13-4.63c-2.88-3.09-4.32-6.71-4.32-10.85c0-4.1,1.37-7.65,4.09-10.67
		C499.51,397.58,503.3,395.93,507.88,395.93 M507.86,399.66c-3.17,0-5.89,1.17-8.17,3.51c-2.28,2.34-3.41,5.17-3.41,8.49
		c0,2.14,0.52,4.14,1.56,5.99c1.04,1.85,2.44,3.28,4.21,4.28c1.76,1.01,3.7,1.51,5.82,1.51c2.11,0,4.05-0.5,5.82-1.51
		c1.77-1.01,3.17-2.44,4.21-4.28c1.03-1.85,1.55-3.85,1.55-5.99c0-3.32-1.14-6.15-3.43-8.49
		C513.73,400.83,511.01,399.66,507.86,399.66z"/>
	<path d="M570.41,385.26v3.73c-1.4-0.6-2.59-0.9-3.59-0.9c-0.74,0-1.36,0.15-1.85,0.45c-0.49,0.3-0.8,0.65-0.92,1.03
		c-0.13,0.4-0.19,1.43-0.19,3.12l0,4h6.18v3.29h-6.19l-0.02,26.32h-3.81v-26.32h-3.89v-3.29h3.89v-4.63c0-2.12,0.19-3.64,0.58-4.54
		c0.4-0.91,1.05-1.64,1.99-2.2c0.93-0.55,2.06-0.83,3.39-0.83C567.21,384.5,568.69,384.76,570.41,385.26"/>
	<path d="M628.51,416.47l3.21,1.69c-1.05,2.07-2.27,3.74-3.65,5.01c-1.38,1.27-2.93,2.24-4.66,2.9c-1.73,0.66-3.68,0.99-5.86,0.99
		c-4.82,0-8.61-1.58-11.33-4.75c-2.72-3.16-4.09-6.75-4.09-10.74c0-3.76,1.15-7.1,3.46-10.04c2.92-3.74,6.83-5.61,11.74-5.61
		c5.05,0,9.08,1.91,12.09,5.74c2.14,2.7,3.23,6.08,3.27,10.12h-26.64c0.07,3.44,1.17,6.26,3.3,8.46c2.12,2.2,4.75,3.3,7.87,3.3
		c1.51,0,2.97-0.26,4.4-0.78c1.42-0.52,2.64-1.22,3.64-2.09C626.26,419.81,627.34,418.41,628.51,416.47 M628.51,408.5
		c-0.51-2.03-1.25-3.66-2.22-4.87c-0.97-1.22-2.26-2.19-3.86-2.94c-1.6-0.74-3.28-1.12-5.04-1.12c-2.91,0-5.4,0.94-7.49,2.81
		c-1.52,1.36-2.68,3.4-3.46,6.12H628.51z"/>
	<path d="M682.55,399.93l-2.45,2.53c-2.04-1.98-4.03-2.97-5.98-2.97c-1.24,0-2.29,0.41-3.18,1.23c-0.88,0.81-1.32,1.76-1.32,2.86
		c0,0.96,0.36,1.87,1.09,2.75c0.73,0.88,2.26,1.93,4.58,3.13c2.84,1.46,4.76,2.88,5.78,4.24c1,1.38,1.5,2.94,1.5,4.66
		c0,2.43-0.85,4.48-2.56,6.17c-1.71,1.69-3.84,2.53-6.4,2.53c-1.71,0-3.34-0.38-4.89-1.12c-1.55-0.74-2.84-1.76-3.85-3.07l2.39-2.72
		c1.95,2.19,4.01,3.29,6.19,3.29c1.52,0,2.83-0.49,3.9-1.47c1.07-0.98,1.61-2.13,1.61-3.45c0-1.09-0.36-2.06-1.06-2.91
		c-0.71-0.84-2.31-1.89-4.8-3.16c-2.67-1.38-4.49-2.74-5.46-4.08c-0.96-1.35-1.44-2.88-1.44-4.6c0-2.25,0.77-4.11,2.3-5.6
		c1.54-1.49,3.48-2.23,5.82-2.23C677.05,395.93,679.79,397.26,682.55,399.93"/>
	<path d="M732.05,399.93l-2.45,2.53c-2.04-1.98-4.03-2.97-5.98-2.97c-1.24,0-2.3,0.41-3.18,1.23c-0.87,0.81-1.32,1.76-1.32,2.86
		c0,0.96,0.36,1.87,1.09,2.75c0.73,0.88,2.25,1.93,4.58,3.13c2.84,1.46,4.76,2.88,5.78,4.24c1,1.38,1.5,2.94,1.5,4.66
		c0,2.43-0.85,4.48-2.56,6.17c-1.71,1.69-3.84,2.53-6.41,2.53c-1.71,0-3.34-0.38-4.89-1.12c-1.55-0.74-2.84-1.76-3.85-3.07
		l2.39-2.72c1.95,2.19,4.01,3.29,6.2,3.29c1.52,0,2.82-0.49,3.9-1.47c1.07-0.98,1.61-2.13,1.61-3.45c0-1.09-0.36-2.06-1.07-2.91
		c-0.71-0.84-2.3-1.89-4.8-3.16c-2.67-1.38-4.49-2.74-5.46-4.08c-0.96-1.35-1.44-2.88-1.44-4.6c0-2.25,0.77-4.11,2.3-5.6
		c1.53-1.49,3.48-2.23,5.82-2.23C726.54,395.93,729.29,397.26,732.05,399.93"/>
	<path d="M767.99,384.5c0.86,0,1.6,0.31,2.21,0.93c0.62,0.62,0.92,1.36,0.92,2.23c0,0.85-0.31,1.59-0.92,2.21
		c-0.61,0.62-1.35,0.92-2.21,0.92c-0.85,0-1.58-0.31-2.2-0.92c-0.61-0.62-0.92-1.35-0.92-2.21c0-0.87,0.31-1.61,0.92-2.23
		C766.41,384.8,767.14,384.5,767.99,384.5 M766.09,396.69h3.81v29.6h-3.81V396.69z"/>
	<path d="M819.7,395.93c4.56,0,8.34,1.66,11.34,4.95c2.73,3.01,4.09,6.58,4.09,10.7c0,4.14-1.44,7.75-4.32,10.85
		c-2.88,3.09-6.58,4.63-11.11,4.63c-4.54,0-8.25-1.54-11.13-4.63c-2.88-3.09-4.32-6.71-4.32-10.85c0-4.1,1.37-7.65,4.09-10.67
		C811.33,397.58,815.12,395.93,819.7,395.93 M819.68,399.66c-3.17,0-5.89,1.17-8.16,3.51c-2.28,2.34-3.42,5.17-3.42,8.49
		c0,2.14,0.52,4.14,1.56,5.99c1.04,1.85,2.44,3.28,4.21,4.28c1.76,1.01,3.7,1.51,5.81,1.51c2.11,0,4.05-0.5,5.82-1.51
		c1.77-1.01,3.17-2.44,4.21-4.28c1.03-1.85,1.56-3.85,1.56-5.99c0-3.32-1.14-6.15-3.43-8.49
		C825.55,400.83,822.83,399.66,819.68,399.66z"/>
	<path d="M870.04,396.69h3.81V402c1.53-2.03,3.21-3.55,5.06-4.56c1.85-1.01,3.87-1.51,6.04-1.51c2.21,0,4.18,0.56,5.89,1.69
		c1.72,1.13,2.98,2.64,3.8,4.55c0.82,1.91,1.23,4.87,1.23,8.91v15.23h-3.81v-14.12c0-3.41-0.15-5.69-0.43-6.83
		c-0.44-1.96-1.29-3.44-2.54-4.43c-1.25-0.99-2.89-1.48-4.9-1.48c-2.31,0-4.37,0.76-6.19,2.29c-1.82,1.52-3.02,3.4-3.61,5.65
		c-0.37,1.47-0.55,4.15-0.55,8.06v10.86h-3.81V396.69z"/>
	<path d="M961.39,396.69v29.61h-3.76v-5.09c-1.6,1.94-3.39,3.4-5.37,4.38c-1.99,0.98-4.16,1.47-6.52,1.47
		c-4.19,0-7.77-1.52-10.74-4.56c-2.97-3.04-4.45-6.73-4.45-11.09c0-4.26,1.5-7.91,4.49-10.94c2.99-3.03,6.59-4.54,10.8-4.54
		c2.43,0,4.63,0.52,6.6,1.55c1.97,1.03,3.7,2.59,5.18,4.65v-5.44H961.39z M946.16,399.6c-2.12,0-4.08,0.52-5.87,1.56
		c-1.8,1.04-3.22,2.51-4.27,4.39c-1.06,1.88-1.59,3.88-1.59,5.99c0,2.08,0.53,4.07,1.6,5.98c1.07,1.9,2.5,3.38,4.31,4.44
		c1.8,1.06,3.74,1.59,5.8,1.59c2.09,0,4.06-0.53,5.93-1.58c1.87-1.05,3.3-2.47,4.31-4.26c1.01-1.8,1.51-3.82,1.51-6.06
		c0-3.43-1.13-6.29-3.38-8.6C952.24,400.75,949.46,399.6,946.16,399.6z"/>
	<rect x="997.26" y="385.26" width="3.81" height="41.04"/>
	<path d="M1031.95,153.2c2.35,0,4.57,0.44,6.65,1.31c2.08,0.89,3.93,2.15,5.57,3.81c1.58,1.59,2.77,3.41,3.6,5.44
		c0.82,2.05,1.23,4.21,1.23,6.5c0,2.32-0.43,4.51-1.28,6.58c-0.86,2.06-2.1,3.88-3.73,5.45c-1.63,1.6-3.49,2.84-5.58,3.69
		c-2.08,0.85-4.24,1.28-6.47,1.28c-2.27,0-4.44-0.45-6.52-1.33c-2.08-0.88-3.93-2.15-5.57-3.82c-1.58-1.6-2.79-3.42-3.62-5.46
		c-0.84-2.04-1.25-4.16-1.25-6.39c0-1.55,0.2-3.07,0.62-4.54c0.41-1.48,1.03-2.91,1.86-4.31c1.54-2.6,3.58-4.62,6.11-6.05
		C1026.11,153.92,1028.9,153.2,1031.95,153.2 M1031.99,156.06c-1.94,0-3.73,0.33-5.39,1.02c-1.67,0.68-3.16,1.68-4.48,3
		c-1.38,1.38-2.45,2.95-3.2,4.71c-0.74,1.76-1.12,3.57-1.12,5.44c0,1.89,0.35,3.68,1.06,5.37c0.69,1.7,1.71,3.21,3.04,4.53
		c1.36,1.38,2.91,2.44,4.64,3.18c1.74,0.74,3.54,1.11,5.42,1.11c1.83,0,3.61-0.36,5.34-1.07c1.73-0.72,3.3-1.74,4.72-3.08
		c1.33-1.28,2.36-2.77,3.08-4.47c0.73-1.7,1.1-3.47,1.1-5.29c0-2.02-0.33-3.89-1.02-5.59c-0.68-1.7-1.69-3.23-3.03-4.58
		c-1.37-1.41-2.91-2.48-4.63-3.19C1035.8,156.42,1033.96,156.06,1031.99,156.06z M1024.92,160.47h7.39c2.69,0,4.7,0.45,6.04,1.36
		c1.35,0.91,2.02,2.26,2.02,4.06c0,1.25-0.37,2.32-1.1,3.21c-0.73,0.88-1.74,1.48-3.04,1.8l4.23,8.44h-5.12l-3.58-7.73h-2.25v7.73
		h-4.59V160.47z M1029.51,163.37v5.48h2.25c1.34,0,2.32-0.21,2.94-0.64c0.63-0.43,0.94-1.1,0.94-2.02c0-0.96-0.34-1.67-1.01-2.13
		c-0.66-0.46-1.7-0.69-3.1-0.69H1029.51z"/>
</g>
</svg>
