<?xml version="1.0" encoding="utf-8"?>
<!-- Generator: Adobe Illustrator 26.4.1, SVG Export Plug-In . SVG Version: 6.00 Build 0)  -->
<svg version="1.1" id="Capa_1" xmlns="http://www.w3.org/2000/svg" xmlns:xlink="http://www.w3.org/1999/xlink" x="0px" y="0px"
	 viewBox="0 0 66 46" style="enable-background:new 0 0 66 46;" xml:space="preserve">
<style type="text/css">
	.st0{fill-rule:evenodd;clip-rule:evenodd;fill:#FFFFFF;}
	.st1{filter:url(#Adobe_OpacityMaskFilter);}
	.st2{mask:url(#mask-2_00000075884625154993854550000008483816730386353847_);fill-rule:evenodd;clip-rule:evenodd;fill:#484848;}
	.st3{fill-rule:evenodd;clip-rule:evenodd;fill:#A28858;}
	.st4{fill-rule:evenodd;clip-rule:evenodd;fill:#EFD099;}
	.st5{fill-rule:evenodd;clip-rule:evenodd;fill:#484848;}
</style>
<g id="Home_V1" transform="translate(-207.000000, -5453.000000)">
	<g id="Group-42" transform="translate(120.000000, 83.000000)">
		<g id="Pago" transform="translate(87.000000, 0.000000)">
			<g id="Group-17">
				<path id="Fill-1" class="st0" d="M0.9,5374.1c0-1.7,1.4-3,3.1-3h58c1.7,0,3.1,1.3,3.1,3v37.2c0,1.7-1.4,3-3.1,3H4
					c-1.7,0-3.1-1.3-3.1-3V5374.1z"/>
				<g id="Group-5">
					<g id="Clip-4">
					</g>
					<defs>
						<filter id="Adobe_OpacityMaskFilter" filterUnits="userSpaceOnUse" x="0" y="5370.2" width="65.9" height="45">
							<feColorMatrix  type="matrix" values="1 0 0 0 0  0 1 0 0 0  0 0 1 0 0  0 0 0 1 0"/>
						</filter>
					</defs>
					
						<mask maskUnits="userSpaceOnUse" x="0" y="5370.2" width="65.9" height="45" id="mask-2_00000075884625154993854550000008483816730386353847_">
						<g class="st1">
							<polygon id="path-1_00000165926061748819558590000011940148479769953925_" class="st0" points="65.9,5415.1 0,5415.1 
								0,5370.2 65.9,5370.2 							"/>
						</g>
					</mask>
					<path id="Fill-3" class="st2" d="M4,5372c-1.2,0-2.2,0.9-2.2,2.1v37.2c0,1.2,1,2.1,2.2,2.1h58c1.2,0,2.2-0.9,2.2-2.1v-37.2
						c0-1.2-1-2.1-2.2-2.1H4z M4,5415.1c-2.2,0-4-1.7-4-3.9v-37.2c0-2.1,1.8-3.9,4-3.9h58c2.2,0,4,1.7,4,3.9v37.2
						c0,2.1-1.8,3.9-4,3.9H4z"/>
				</g>
				<path id="Fill-8" class="st3" d="M17.3,5377.6c-2.1,0-3.7,1.6-3.7,3.6c0,2,1.7,3.6,3.7,3.6s3.7-1.6,3.7-3.6
					C21,5379.2,19.3,5377.6,17.3,5377.6 M17.3,5386.6c-3.1,0-5.6-2.4-5.6-5.4c0-3,2.5-5.4,5.6-5.4s5.6,2.4,5.6,5.4
					C22.8,5384.2,20.4,5386.6,17.3,5386.6"/>
				<path id="Fill-11" class="st4" d="M48,5402.8c0-1,0.8-1.8,1.8-1.8h8.5c1,0,1.8,0.8,1.8,1.8v5.1c0,1-0.8,1.8-1.8,1.8h-8.5
					c-1,0-1.8-0.8-1.8-1.8V5402.8z"/>
				<g id="Group-43" transform="translate(5.000000, 6.000000)">
					<path id="Fill-13" class="st4" d="M5.6,5380.3c2.9,0,5.3-2.3,5.3-5.1c0-2.8-2.4-5.1-5.3-5.1s-5.3,2.3-5.3,5.1
						C0.4,5378,2.7,5380.3,5.6,5380.3"/>
					<path id="Fill-17" class="st5" d="M9.8,5388.6H1.7c-0.5,0-0.9-0.4-0.9-0.9s0.4-0.9,0.9-0.9h8.2c0.5,0,0.9,0.4,0.9,0.9
						S10.3,5388.6,9.8,5388.6"/>
					<path id="Fill-21" class="st5" d="M6.6,5398H0.7c-0.3,0-0.6-0.2-0.6-0.6s0.3-0.6,0.6-0.6h5.9c0.3,0,0.6,0.2,0.6,0.6
						S6.9,5398,6.6,5398"/>
					<path id="Fill-25" class="st5" d="M19.2,5398H11c-0.3,0-0.6-0.2-0.6-0.6s0.3-0.6,0.6-0.6h8.2c0.3,0,0.6,0.2,0.6,0.6
						S19.5,5398,19.2,5398"/>
					<path id="Fill-29" class="st5" d="M15.9,5401.8H0.7c-0.3,0-0.6-0.2-0.6-0.6s0.3-0.6,0.6-0.6h15.2c0.3,0,0.6,0.2,0.6,0.6
						S16.2,5401.8,15.9,5401.8"/>
					<path id="Fill-33" class="st5" d="M24.2,5388.6h-8.2c-0.5,0-0.9-0.4-0.9-0.9s0.4-0.9,0.9-0.9h8.2c0.5,0,0.9,0.4,0.9,0.9
						S24.7,5388.6,24.2,5388.6"/>
					<path id="Fill-37" class="st5" d="M38.6,5388.6h-8.2c-0.5,0-0.9-0.4-0.9-0.9s0.4-0.9,0.9-0.9h8.2c0.5,0,0.9,0.4,0.9,0.9
						S39.1,5388.6,38.6,5388.6"/>
					<path id="Fill-41" class="st5" d="M53.2,5388.6h-8.5c-0.5,0-0.9-0.4-0.9-0.9s0.4-0.9,0.9-0.9h8.5c0.5,0,0.9,0.4,0.9,0.9
						S53.7,5388.6,53.2,5388.6"/>
				</g>
			</g>
		</g>
	</g>
</g>
</svg>
